<svg version="1.0" xmlns="http://www.w3.org/2000/svg"
     width="754.000000pt" height="252.000000pt" viewBox="0 0 754.000000 252.000000"
     preserveAspectRatio="xMidYMid meet">

    <g transform="translate(0.000000,252.000000) scale(0.100000,-0.100000)"
       fill="#000000" stroke="none">
        <path d="M1442 2050 c-371 -51 -645 -388 -618 -762 12 -176 81 -326 210 -453
122 -121 239 -180 406 -206 351 -54 712 191 794 541 21 86 20 256 0 339 -85
350 -436 589 -792 541z m286 -61 c116 -36 200 -86 288 -174 130 -129 197 -288
197 -470 1 -121 -16 -192 -70 -305 -79 -165 -232 -296 -408 -350 -255 -78
-557 13 -721 217 -324 405 -106 1001 401 1099 90 17 224 10 313 -17z"/>
        <path d="M1535 1841 c-76 -32 -102 -146 -68 -307 l17 -81 -69 -81 c-38 -45
-73 -78 -76 -74 -4 4 -13 34 -20 67 l-12 61 37 53 c20 30 39 64 42 77 15 60
-39 116 -90 93 -50 -23 -65 -93 -41 -191 5 -18 -12 -43 -75 -118 -44 -52 -80
-101 -80 -107 0 -31 34 -7 96 67 37 44 70 80 73 80 4 0 14 -28 23 -62 l16 -62
-38 -55 c-46 -69 -53 -95 -35 -137 25 -59 88 -55 121 8 15 30 16 57 2 151 -3
15 132 191 140 183 1 -2 13 -43 26 -90 l23 -88 -43 -58 c-66 -90 -92 -134
-104 -179 -22 -83 24 -161 97 -161 100 0 152 123 118 283 -9 43 -18 84 -21 90
-2 7 15 35 38 63 24 27 56 65 71 83 15 19 30 31 33 28 3 -3 12 -31 20 -62 l15
-57 -40 -62 c-49 -74 -54 -120 -18 -154 32 -30 53 -28 89 9 31 30 31 31 25
115 l-6 84 80 95 c74 86 88 116 56 115 -7 -1 -29 -22 -50 -48 -21 -26 -53 -64
-71 -86 l-33 -39 -18 66 -18 66 42 61 c30 45 41 73 41 100 0 71 -72 98 -118
44 -23 -27 -24 -33 -19 -112 l6 -84 -66 -79 c-36 -43 -69 -79 -73 -79 -3 0
-16 41 -28 91 l-22 90 60 83 c70 96 90 140 90 197 0 88 -69 141 -145 110z m89
-53 c21 -29 20 -91 0 -131 -24 -46 -96 -147 -105 -147 -11 0 -29 94 -29 156 0
56 27 127 52 137 32 13 68 6 82 -15z m-284 -183 c15 -18 8 -48 -21 -94 -16
-27 -23 -31 -30 -20 -14 22 -10 82 7 107 18 26 27 27 44 7z m468 -14 c4 -28
-14 -74 -38 -96 -16 -15 -18 -13 -23 20 -3 20 -1 48 4 63 18 47 51 54 57 13z
m-478 -446 c0 -65 -26 -99 -56 -74 -21 17 -17 40 13 87 29 45 43 41 43 -13z
m458 -39 c-10 -38 -22 -50 -42 -43 -29 11 -17 75 23 121 15 17 16 17 21 -15 3
-19 2 -47 -2 -63z m-207 -28 c20 -127 -18 -213 -92 -206 -28 3 -36 9 -48 41
-11 30 -12 45 -3 76 15 49 111 186 123 174 5 -5 14 -43 20 -85z"/>
        <path d="M2524 1787 c-55 -27 -90 -71 -96 -122 -3 -30 -3 -30 55 -33 47 -2 57
0 57 13 0 9 11 27 25 40 18 19 35 25 70 25 35 0 52 -6 70 -25 31 -30 32 -56 2
-91 -20 -23 -34 -28 -85 -32 l-62 -4 0 -44 0 -44 48 0 c94 0 155 -58 121 -118
-32 -58 -132 -59 -180 -3 -23 28 -31 31 -83 31 l-58 0 6 -32 c9 -44 50 -94 99
-120 64 -34 194 -32 262 3 83 42 117 134 80 213 -16 33 -61 66 -89 66 -26 0
-18 14 18 34 45 24 70 76 63 129 -12 87 -72 129 -191 134 -70 4 -88 1 -132
-20z"/>
        <path d="M3085 1798 c-44 -15 -93 -55 -110 -88 -23 -44 -19 -121 8 -161 31
-46 82 -72 180 -93 45 -10 92 -24 105 -32 31 -21 30 -67 -4 -93 -50 -40 -173
-21 -189 29 -5 17 -15 20 -70 20 l-63 0 8 -37 c12 -52 39 -84 93 -111 89 -45
233 -38 308 14 50 34 73 88 67 159 -7 89 -59 129 -209 160 -40 9 -84 22 -96
31 -29 18 -31 64 -4 88 45 41 149 24 173 -28 10 -24 17 -26 70 -26 67 0 70 7
39 76 -20 44 -56 74 -110 92 -42 15 -155 14 -196 0z"/>
        <path d="M4286 1795 c-50 -18 -110 -76 -137 -134 -30 -64 -37 -188 -15 -263
36 -124 126 -193 251 -193 56 0 81 5 120 26 55 28 101 85 111 137 6 29 4 32
-20 32 -20 0 -30 -9 -46 -39 -46 -91 -158 -128 -248 -82 -74 38 -122 131 -122
235 0 82 54 186 114 218 59 32 153 26 207 -13 15 -11 36 -37 45 -59 15 -33 23
-40 46 -40 33 0 34 10 9 66 -22 49 -78 97 -130 113 -51 15 -137 13 -185 -4z"/>
        <path d="M5834 1800 c-15 -6 -45 -74 -127 -292 -59 -156 -107 -287 -107 -292
0 -4 14 -6 32 -4 30 3 33 7 62 91 l31 87 124 -2 124 -3 31 -87 c31 -87 31 -88
65 -88 28 0 32 3 26 18 -4 9 -52 139 -107 287 -56 149 -106 276 -111 283 -11
14 -14 14 -43 2z m70 -223 c25 -71 46 -131 46 -133 0 -2 -45 -4 -100 -4 -55 0
-100 3 -100 7 0 20 96 271 101 265 3 -4 27 -65 53 -135z"/>
        <path d="M4720 1505 l0 -295 181 0 180 0 -3 28 -3 27 -147 3 -148 3 0 264 0
265 -30 0 -30 0 0 -295z"/>
        <path d="M5170 1505 l0 -295 180 0 180 0 0 30 0 30 -150 0 -151 0 3 108 3 107
143 3 142 3 0 24 0 25 -145 0 -145 0 0 105 0 105 150 0 150 0 0 25 0 25 -180
0 -180 0 0 -295z"/>
        <path d="M6180 1505 l0 -295 30 0 30 0 2 243 3 242 170 -242 c163 -233 171
-243 202 -243 l33 0 0 295 0 295 -30 0 -30 0 0 -241 c0 -132 -4 -238 -8 -235
-5 3 -82 111 -172 240 -158 227 -166 236 -197 236 l-33 0 0 -295z"/>
        <path d="M3550 1515 l0 -25 240 0 240 0 0 25 0 25 -240 0 -240 0 0 -25z"/>
        <path d="M6305 1011 c-7 -12 12 -24 25 -16 11 7 4 25 -10 25 -5 0 -11 -4 -15
-9z"/>
        <path d="M6355 1011 c-7 -12 12 -24 25 -16 11 7 4 25 -10 25 -5 0 -11 -4 -15
-9z"/>
        <path d="M2453 970 c-28 -11 -41 -56 -22 -75 8 -7 29 -17 48 -22 19 -5 36 -14
39 -21 6 -18 -28 -27 -49 -14 -22 14 -49 16 -49 3 0 -24 34 -42 73 -39 33 2
45 9 56 30 14 24 14 28 -3 47 -11 12 -27 21 -36 21 -9 0 -25 7 -36 15 -16 13
-17 16 -4 24 10 7 22 6 37 -4 28 -19 43 -19 43 -1 0 30 -59 52 -97 36z"/>
        <path d="M2682 972 c-6 -5 -25 -45 -42 -90 -29 -80 -29 -82 -9 -82 12 0 23 8
26 20 4 15 14 20 38 20 24 0 34 -5 38 -20 3 -12 14 -20 25 -20 20 0 20 3 -9
82 -40 108 -39 107 -67 90z m27 -89 c1 -7 -6 -13 -14 -13 -16 0 -19 17 -8 46
6 16 7 16 14 -2 4 -10 8 -25 8 -31z"/>
        <path d="M3067 974 c-4 -4 -7 -45 -7 -91 l0 -83 46 0 c61 0 84 14 84 50 0 16
-5 32 -10 35 -7 4 -7 13 0 26 16 28 -4 59 -38 59 -15 0 -36 3 -47 6 -11 3 -24
2 -28 -2z m67 -30 c30 -12 12 -44 -25 -44 -5 0 -9 11 -9 25 0 26 7 29 34 19z
m11 -77 c23 -17 12 -37 -21 -37 -19 0 -24 5 -24 25 0 28 17 32 45 12z"/>
        <path d="M3783 970 c-28 -11 -41 -56 -22 -75 8 -7 29 -17 48 -22 19 -5 36 -14
39 -21 6 -18 -28 -27 -49 -14 -22 14 -49 16 -49 3 0 -24 34 -42 73 -39 33 2
45 9 56 30 14 24 14 28 -3 47 -11 12 -27 21 -36 21 -9 0 -25 7 -36 15 -16 13
-17 16 -4 24 10 7 22 6 37 -4 28 -19 43 -19 43 -1 0 30 -59 52 -97 36z"/>
        <path d="M4110 967 c-39 -20 -55 -62 -41 -108 13 -43 35 -59 80 -59 30 0 71
29 71 50 0 15 -30 12 -47 -5 -21 -22 -44 -15 -62 17 -21 36 -2 78 34 78 14 0
28 -7 31 -15 8 -19 44 -20 44 -1 0 18 -47 56 -69 56 -9 0 -27 -6 -41 -13z"/>
        <path d="M5040 967 c-28 -14 -38 -51 -20 -73 7 -8 26 -18 43 -22 17 -4 32 -13
35 -20 6 -19 -27 -26 -53 -12 -34 18 -49 10 -30 -18 12 -16 26 -22 54 -22 50
0 74 18 69 55 -2 25 -10 32 -45 45 -43 15 -55 33 -28 44 8 3 21 -1 29 -9 16
-16 46 -20 46 -7 0 34 -61 58 -100 39z"/>
        <path d="M5255 969 c-33 -19 -45 -41 -45 -81 0 -52 35 -88 85 -88 58 0 81 34
75 110 -3 50 -71 84 -115 59z m75 -54 c11 -29 -2 -73 -24 -81 -28 -11 -56 15
-56 49 0 39 15 57 47 57 16 0 27 -8 33 -25z"/>
        <path d="M6332 972 c-6 -5 -25 -45 -42 -90 -29 -80 -29 -82 -9 -82 12 0 23 8
26 20 4 15 14 20 38 20 24 0 34 -5 38 -20 3 -12 14 -20 25 -20 20 0 20 3 -9
82 -40 108 -39 107 -67 90z m27 -89 c1 -7 -6 -13 -14 -13 -16 0 -19 17 -8 46
6 16 7 16 14 -2 4 -10 8 -25 8 -31z"/>
        <path d="M2830 911 c0 -75 25 -111 76 -111 55 0 74 28 74 105 0 58 -2 65 -20
65 -18 0 -20 -7 -20 -64 0 -56 -3 -65 -20 -71 -35 -11 -50 12 -50 76 0 52 -2
59 -20 59 -18 0 -20 -7 -20 -59z"/>
        <path d="M3260 885 l0 -85 60 0 c47 0 60 3 60 15 0 11 -11 15 -40 15 -33 0
-40 3 -40 20 0 16 7 20 35 20 24 0 35 5 35 15 0 10 -11 15 -35 15 -28 0 -35 4
-35 20 0 17 7 20 40 20 29 0 40 4 40 15 0 12 -13 15 -60 15 l-60 0 0 -85z"/>
        <path d="M3450 885 c0 -78 2 -85 20 -85 16 0 20 7 20 30 0 20 5 30 15 30 8 0
21 -13 30 -30 9 -18 23 -30 35 -30 24 0 25 8 5 37 -13 19 -13 24 2 51 16 28
16 31 0 56 -15 23 -24 26 -72 26 l-55 0 0 -85z m95 45 c9 -15 -14 -40 -36 -40
-14 0 -19 7 -19 25 0 20 5 25 24 25 14 0 28 -5 31 -10z"/>
        <path d="M3950 885 c0 -78 2 -85 20 -85 18 0 20 7 20 85 0 78 -2 85 -20 85
-18 0 -20 -7 -20 -85z"/>
        <path d="M4290 885 c0 -78 2 -85 20 -85 16 0 20 7 20 35 0 34 1 35 40 35 39 0
40 -1 40 -35 0 -24 5 -35 15 -35 12 0 15 16 15 85 0 67 -3 85 -14 85 -9 0 -16
-12 -18 -32 -3 -30 -6 -33 -38 -33 -32 0 -35 3 -38 33 -2 24 -8 32 -23 32 -17
0 -19 -8 -19 -85z"/>
        <path d="M4520 885 l0 -85 55 0 c42 0 55 3 55 15 0 10 -11 15 -35 15 -28 0
-35 4 -35 20 0 16 7 20 35 20 24 0 35 5 35 15 0 10 -11 15 -35 15 -28 0 -35 4
-35 20 0 16 7 20 35 20 24 0 35 5 35 15 0 12 -13 15 -55 15 l-55 0 0 -85z"/>
        <path d="M4710 885 c0 -78 2 -85 20 -85 16 0 20 7 20 30 0 19 5 30 14 30 7 0
19 -13 26 -30 9 -22 19 -30 37 -30 l25 0 -20 34 c-18 30 -19 36 -6 47 17 14
18 61 2 77 -7 7 -36 12 -65 12 l-53 0 0 -85z m90 36 c0 -17 -18 -31 -41 -31
-5 0 -9 11 -9 25 0 20 5 25 25 25 18 0 25 -5 25 -19z"/>
        <path d="M5440 911 c0 -75 25 -111 76 -111 55 0 74 28 74 105 0 58 -2 65 -20
65 -18 0 -20 -7 -20 -64 0 -56 -3 -65 -20 -71 -35 -11 -50 12 -50 76 0 52 -2
59 -20 59 -18 0 -20 -7 -20 -59z"/>
        <path d="M5679 888 c24 -72 31 -83 52 -86 23 -3 27 4 48 70 13 40 26 79 28 86
3 7 -3 12 -16 12 -16 0 -24 -12 -39 -62 l-19 -63 -18 63 c-16 53 -22 62 -41
62 l-23 0 28 -82z"/>
        <path d="M5880 885 l0 -85 55 0 c42 0 55 3 55 15 0 10 -11 15 -35 15 -28 0
-35 4 -35 20 0 16 7 20 35 20 24 0 35 5 35 15 0 10 -11 15 -35 15 -28 0 -35 4
-35 20 0 16 7 20 35 20 24 0 35 5 35 15 0 12 -13 15 -55 15 l-55 0 0 -85z"/>
        <path d="M6070 885 c0 -78 2 -85 20 -85 16 0 20 7 20 30 0 19 5 30 14 30 7 0
19 -13 26 -30 9 -22 19 -30 37 -30 l25 0 -20 34 c-18 30 -19 36 -6 47 17 14
18 61 2 77 -7 7 -36 12 -65 12 l-53 0 0 -85z m90 36 c0 -17 -18 -31 -41 -31
-5 0 -9 11 -9 25 0 20 5 25 25 25 18 0 25 -5 25 -19z"/>
        <path d="M6490 885 c0 -78 2 -85 19 -85 17 0 20 8 23 53 l3 52 35 -52 c20 -30
43 -53 53 -53 15 0 17 11 17 85 0 78 -2 85 -19 85 -17 0 -20 -8 -23 -47 l-3
-48 -33 48 c-20 29 -40 47 -52 47 -18 0 -20 -7 -20 -85z"/>
    </g>
</svg>
